<svg aria-hidden="true" style="position: absolute; width: 0; height: 0; overflow: hidden;" version="1.1" xmlns="http://www.w3.org/2000/svg" xmlns:xlink="http://www.w3.org/1999/xlink">
    <defs>
        <symbol id="icon-chevron-back" viewBox="0 0 32 32">
            <path stroke-linejoin="round" stroke-linecap="square" stroke-miterlimit="4" stroke-width="3.7647" d="M20.873 7.529l-8.471 8.471 8.471 8.471"></path>
        </symbol>
        <symbol id="icon-close" viewBox="0 0 33 32">
            <path stroke-linejoin="miter" stroke-linecap="square" stroke-miterlimit="4" stroke-width="2.4" d="M17.905 22.4l12.495-12.8"></path>
            <path stroke-linejoin="miter" stroke-linecap="square" stroke-miterlimit="4" stroke-width="2.4" d="M17.6 9.6l12.495 12.8"></path>
        </symbol>
        <symbol id="icon-menu" viewBox="0 0 32 32">
            <path stroke-linejoin="round" stroke-linecap="square" stroke-miterlimit="4" stroke-width="2.3415" d="M14.704 9.427h15.61M14.704 15.671h15.61M14.704 21.915h15.61"></path>
        </symbol>
        <symbol id="icon-google-play" viewBox="0 0 30 32">
            <path fill="#ea4335" style="fill: var(--color1, #ea4335)" d="M13.876 15.268l-13.166 13.794c0.148 0.524 0.414 1.007 0.777 1.413s0.814 0.723 1.319 0.927 1.049 0.291 1.592 0.253c0.543-0.038 1.070-0.2 1.541-0.473l14.814-8.437-6.877-7.476z"></path>
            <path fill="#fbbc04" style="fill: var(--color2, #fbbc04)" d="M27.189 12.924l-6.406-3.669-7.211 6.328 7.24 7.142 6.357-3.63c0.563-0.295 1.035-0.738 1.364-1.282s0.503-1.167 0.503-1.803c0-0.636-0.174-1.259-0.503-1.803s-0.801-0.987-1.364-1.282l0.019 0z"></path>
            <path fill="#4285f4" style="fill: var(--color3, #4285f4)" d="M0.71 2.887c-0.080 0.294-0.119 0.598-0.118 0.903v24.37c0.001 0.305 0.040 0.608 0.118 0.903l13.617-13.441-13.617-12.734z"></path>
            <path fill="#34a853" style="fill: var(--color4, #34a853)" d="M13.974 15.975l6.809-6.72-14.794-8.476c-0.557-0.326-1.19-0.499-1.835-0.5-1.601-0.003-3.008 1.059-3.443 2.6l13.264 13.097z"></path>
        </symbol>
        <symbol id="back" viewBox="0 0 16 16">
            <path d="M10.25 3.5L5.75 8L10.25 12.5" stroke-width="1.5" stroke-linecap="square" stroke-linejoin="round" />
        </symbol>
        <symbol id="ac-plus" viewBox="0 0 19 19" >
            <path d="M1.83887 9.03906H17.8389M9.83887 1.03906V17.0391" stroke-width="2" stroke-linecap="square" stroke-linejoin="round" />
        </symbol>
        <symbol id="icon-arrow-right" viewBox="0 0 16 32">
            <path d="M13.543 16.948l-7.543 7.543-1.885-1.885 6.6-6.6-6.6-6.6 1.885-1.885 7.543 7.543c0.25 0.25 0.39 0.589 0.39 0.943s-0.14 0.693-0.39 0.943z"></path>
        </symbol>
        <symbol id="icon-arrow-left" viewBox="0 0 16 32">
            <path d="M4.505 16.948l7.543 7.543 1.885-1.885-6.6-6.6 6.6-6.6-1.885-1.885-7.543 7.543c-0.25 0.25-0.39 0.589-0.39 0.943s0.14 0.693 0.39 0.943z"></path>
        </symbol>
    </defs>
</svg>
